<svg width="288" height="52" viewBox="0 0 288 52" fill="none" xmlns="http://www.w3.org/2000/svg">
<path d="M255.562 26V17.2727H259.347C260.011 17.2727 260.57 17.3622 261.021 17.5412C261.476 17.7202 261.818 17.973 262.048 18.2997C262.281 18.6264 262.398 19.0114 262.398 19.4545C262.398 19.7756 262.327 20.0682 262.185 20.3324C262.045 20.5966 261.849 20.8182 261.597 20.9972C261.344 21.1733 261.048 21.2955 260.71 21.3636V21.4489C261.085 21.4631 261.426 21.5582 261.733 21.7344C262.04 21.9077 262.284 22.1477 262.466 22.4545C262.648 22.7585 262.739 23.1165 262.739 23.5284C262.739 24.0057 262.614 24.4304 262.364 24.8026C262.116 25.1747 261.764 25.4673 261.307 25.6804C260.849 25.8935 260.304 26 259.67 26H255.562ZM257.932 24.108H259.04C259.438 24.108 259.736 24.0341 259.935 23.8864C260.134 23.7358 260.233 23.5142 260.233 23.2216C260.233 23.017 260.186 22.8437 260.092 22.7017C259.999 22.5597 259.865 22.4517 259.692 22.3778C259.521 22.304 259.315 22.267 259.074 22.267H257.932V24.108ZM257.932 20.8011H258.903C259.111 20.8011 259.294 20.7685 259.453 20.7031C259.612 20.6378 259.736 20.544 259.824 20.4219C259.915 20.2969 259.96 20.1449 259.96 19.9659C259.96 19.696 259.864 19.4901 259.67 19.348C259.477 19.2031 259.233 19.1307 258.938 19.1307H257.932V20.8011ZM263.578 26V17.2727H269.868V19.1818H265.947V20.6818H269.544V22.5909H265.947V24.0909H269.851V26H263.578ZM270.804 19.1818V17.2727H278.39V19.1818H275.765V26H273.429V19.1818H270.804ZM280.447 26H277.89L280.771 17.2727H284.009L286.89 26H284.333L282.424 19.6761H282.356L280.447 26ZM279.969 22.5568H284.776V24.3295H279.969V22.5568Z" fill="#3B6AF8"/>
<rect x="18" y="17" width="6" height="21" rx="1" fill="#4A84FA"/>
<rect x="9" y="7" width="6" height="31" rx="1" fill="#4A84FA"/>
<rect y="23" width="6" height="15" rx="1" fill="#4A84FA"/>
<path d="M51.108 39.36C46.788 39.36 44.556 37.2 44.556 32.988C44.556 32.628 44.556 32.592 44.592 32.484L51.036 31.692V31.944C51.036 33.348 51.54 33.852 53.052 33.852H57.336C58.812 33.852 59.316 33.348 59.316 31.944V31.26C59.316 30.072 58.884 29.784 56.724 29.46L50.856 28.596C46.392 27.948 44.664 26.364 44.664 22.692V19.344C44.664 15.132 46.896 12.972 51.216 12.972H59.172C63.492 12.972 65.688 15.132 65.688 19.308C65.688 19.668 65.688 19.704 65.652 19.848L59.208 20.604V20.388C59.208 18.948 58.704 18.48 57.228 18.48H53.232C51.684 18.48 51.144 18.984 51.144 20.388V20.964C51.144 22.188 51.504 22.404 53.772 22.728L59.676 23.592C64.176 24.24 65.796 25.824 65.796 29.568V32.988C65.796 37.2 63.6 39.36 59.28 39.36H51.108ZM79.0583 34.464H80.5343V39.36H76.9343C72.9383 39.36 71.1743 37.668 71.1743 33.852V11.208H77.3303V32.844C77.3303 34.104 77.7623 34.464 79.0583 34.464ZM98.6432 39L98.2832 37.668C97.4912 38.856 96.2312 39.36 93.9632 39.36H90.1832C86.1872 39.36 84.4232 37.668 84.4232 33.852V31.62C84.4232 27.912 86.0432 26.472 90.1832 26.472H95.5472C96.4472 26.472 97.0232 26.58 97.3832 26.832V24.528C97.3832 23.268 96.9512 22.872 95.6552 22.872H92.3432C91.0472 22.872 90.6152 23.268 90.6152 24.528V24.744L84.4952 24.204C84.4592 24.024 84.4592 23.916 84.4592 23.52C84.4592 19.668 86.2232 18.012 90.2192 18.012H97.7792C101.775 18.012 103.575 19.668 103.575 23.52V35.004L103.863 39H98.6432ZM90.5792 32.988C90.5792 34.14 90.9392 34.464 92.3072 34.464H95.6552C97.0232 34.464 97.3832 34.14 97.3832 32.988V31.296C97.1312 31.152 96.8072 31.116 96.1592 31.116H92.3072C90.9392 31.116 90.5792 31.44 90.5792 32.592V32.988ZM119.324 39.36C117.668 39.36 116.624 39.072 115.904 38.46V47.388H109.748V22.368L109.46 18.372H114.644L115.112 19.956C115.796 18.624 116.912 18.012 119.324 18.012H123.428C127.424 18.012 129.188 19.668 129.188 23.52V33.852C129.188 37.668 127.424 39.36 123.428 39.36H119.324ZM115.904 32.844C115.904 34.104 116.336 34.464 117.632 34.464H121.304C122.6 34.464 123.032 34.104 123.032 32.844V24.528C123.032 23.268 122.6 22.872 121.304 22.872H117.632C116.336 22.872 115.904 23.268 115.904 24.528V32.844ZM140.897 39.36C136.577 39.36 134.345 37.2 134.345 32.988C134.345 32.628 134.345 32.592 134.381 32.484L140.825 31.692V31.944C140.825 33.348 141.329 33.852 142.841 33.852H147.125C148.601 33.852 149.105 33.348 149.105 31.944V31.26C149.105 30.072 148.673 29.784 146.513 29.46L140.645 28.596C136.181 27.948 134.453 26.364 134.453 22.692V19.344C134.453 15.132 136.685 12.972 141.005 12.972H148.961C153.281 12.972 155.477 15.132 155.477 19.308C155.477 19.668 155.477 19.704 155.441 19.848L148.997 20.604V20.388C148.997 18.948 148.493 18.48 147.017 18.48H143.021C141.473 18.48 140.933 18.984 140.933 20.388V20.964C140.933 22.188 141.293 22.404 143.561 22.728L149.465 23.592C153.965 24.24 155.585 25.824 155.585 29.568V32.988C155.585 37.2 153.389 39.36 149.069 39.36H140.897ZM166.543 39.36C162.547 39.36 160.747 37.668 160.747 33.852V23.52C160.747 19.668 162.547 18.012 166.543 18.012H173.959C177.955 18.012 179.755 19.668 179.755 23.52C179.755 23.88 179.755 23.988 179.719 24.204L173.599 24.744V24.528C173.599 23.268 173.167 22.872 171.835 22.872H168.667C167.335 22.872 166.903 23.268 166.903 24.528V32.844C166.903 34.104 167.335 34.464 168.667 34.464H171.835C173.167 34.464 173.599 34.104 173.599 32.844V32.592L179.719 33.168C179.755 33.384 179.755 33.492 179.755 33.852C179.755 37.668 177.955 39.36 173.959 39.36H166.543ZM190.344 39.36C186.348 39.36 184.548 37.668 184.548 33.852V23.52C184.548 19.668 186.348 18.012 190.344 18.012H198.3C202.296 18.012 204.06 19.668 204.06 23.52V33.852C204.06 37.668 202.296 39.36 198.3 39.36H190.344ZM196.176 34.464C197.472 34.464 197.904 34.104 197.904 32.844V24.528C197.904 23.268 197.472 22.872 196.176 22.872H192.468C191.136 22.872 190.704 23.268 190.704 24.528V32.844C190.704 34.104 191.136 34.464 192.468 34.464H196.176ZM208.546 39V34.104H213.298V23.232H208.546V18.372H218.23L218.662 19.92C219.382 18.66 220.498 18.012 222.73 18.012H223.738C227.734 18.012 229.534 19.668 229.534 23.52C229.534 23.88 229.534 23.988 229.498 24.204L223.378 24.744V24.528C223.378 23.268 222.946 22.872 221.614 22.872H221.218C219.886 22.872 219.454 23.268 219.454 24.528V34.104H226.114V39H208.546ZM238.964 39.36C234.968 39.36 233.168 37.668 233.168 33.852V23.52C233.168 19.668 234.968 18.012 238.964 18.012H246.704C250.7 18.012 252.464 19.668 252.464 23.52V30.54H239.324V32.844C239.324 34.104 239.756 34.464 241.088 34.464H244.58C245.876 34.464 246.308 34.104 246.308 32.844V32.628L252.428 33.168C252.464 33.348 252.464 33.384 252.464 33.852C252.464 37.668 250.7 39.36 246.704 39.36H238.964ZM239.324 25.896H246.308V24.528C246.308 23.268 245.876 22.872 244.58 22.872H241.088C239.756 22.872 239.324 23.268 239.324 24.528V25.896Z" fill="white"/>
</svg>
